<svg width="14" height="14" viewBox="0 0 14 14" fill="none" xmlns="http://www.w3.org/2000/svg">
<g clip-path="url(#clip0_197_6335)">
<path d="M11.0832 5.25033C11.0832 4.71409 10.9776 4.18311 10.7723 3.6877C10.5671 3.19229 10.2664 2.74215 9.88719 2.36297C9.50802 1.9838 9.05787 1.68302 8.56246 1.47782C8.06705 1.27261 7.53607 1.16699 6.99984 1.16699C6.46361 1.16699 5.93263 1.27261 5.43721 1.47782C4.9418 1.68302 4.49166 1.9838 4.11248 2.36297C3.73331 2.74215 3.43254 3.19229 3.22733 3.6877C3.02212 4.18311 2.9165 4.71409 2.9165 5.25033C2.9165 6.05941 3.15509 6.81191 3.56109 7.44658H3.55642L6.99984 12.8337L10.4433 7.44658H10.4392C10.8597 6.79126 11.0832 6.02897 11.0832 5.25033ZM6.99984 7.00033C6.53571 7.00033 6.09059 6.81595 5.7624 6.48776C5.43421 6.15957 5.24984 5.71445 5.24984 5.25033C5.24984 4.7862 5.43421 4.34108 5.7624 4.01289C6.09059 3.6847 6.53571 3.50033 6.99984 3.50033C7.46397 3.50033 7.90909 3.6847 8.23727 4.01289C8.56546 4.34108 8.74984 4.7862 8.74984 5.25033C8.74984 5.71445 8.56546 6.15957 8.23727 6.48776C7.90909 6.81595 7.46397 7.00033 6.99984 7.00033Z" fill="#808080"/>
</g>
<defs>
<clipPath id="clip0_197_6335">
<rect width="14" height="14" fill="white"/>
</clipPath>
</defs>
</svg>
