<svg width="36" height="36" viewBox="0 0 36 36" fill="none" xmlns="http://www.w3.org/2000/svg">
<path fill-rule="evenodd" clip-rule="evenodd" d="M13 11.75C13 10.4239 13.5268 9.15215 14.4645 8.21447C15.4021 7.27678 16.6739 6.75 18 6.75C19.3261 6.75 20.5979 7.27678 21.5355 8.21447C22.4732 9.15215 23 10.4239 23 11.75C23 13.0761 22.4732 14.3479 21.5355 15.2855C20.5979 16.2232 19.3261 16.75 18 16.75C16.6739 16.75 15.4021 16.2232 14.4645 15.2855C13.5268 14.3479 13 13.0761 13 11.75ZM13 19.25C11.3424 19.25 9.75269 19.9085 8.58058 21.0806C7.40848 22.2527 6.75 23.8424 6.75 25.5C6.75 26.4946 7.14509 27.4484 7.84835 28.1517C8.55161 28.8549 9.50544 29.25 10.5 29.25H25.5C26.4946 29.25 27.4484 28.8549 28.1517 28.1517C28.8549 27.4484 29.25 26.4946 29.25 25.5C29.25 23.8424 28.5915 22.2527 27.4194 21.0806C26.2473 19.9085 24.6576 19.25 23 19.25H13Z" fill="#808080"/>
</svg>
