<svg width="250" height="10" viewBox="0 0 250 10" fill="none" xmlns="http://www.w3.org/2000/svg">
<path d="M1 1V5" stroke="#FF6232" stroke-width="2" stroke-linecap="round"/>
<path d="M9 1V5" stroke="#FF6232" stroke-width="2" stroke-linecap="round"/>
<path d="M17 1V5" stroke="#FF6232" stroke-width="2" stroke-linecap="round"/>
<path d="M25 1V9" stroke="#FF6232" stroke-width="2" stroke-linecap="round"/>
<path d="M33 1V5" stroke="#FF6232" stroke-width="2" stroke-linecap="round"/>
<path d="M41 1V5" stroke="#FF6232" stroke-width="2" stroke-linecap="round"/>
<path d="M49 1V5" stroke="#FF6232" stroke-width="2" stroke-linecap="round"/>
<path d="M57 1V9" stroke="#FF6232" stroke-width="2" stroke-linecap="round"/>
<path d="M65 1V5" stroke="#FF6232" stroke-width="2" stroke-linecap="round"/>
<path d="M73 1V5" stroke="#FF6232" stroke-width="2" stroke-linecap="round"/>
<path d="M81 1V5" stroke="#FF6232" stroke-width="2" stroke-linecap="round"/>
<path d="M89 1V9" stroke="#FF6232" stroke-width="2" stroke-linecap="round"/>
<path d="M97 1V5" stroke="#FF6232" stroke-width="2" stroke-linecap="round"/>
<path d="M105 1V5" stroke="#FF6232" stroke-width="2" stroke-linecap="round"/>
<path d="M113 1V5" stroke="#FF6232" stroke-width="2" stroke-linecap="round"/>
<path d="M121 1V9" stroke="#FF6232" stroke-width="2" stroke-linecap="round"/>
<path d="M129 1V5" stroke="#FF6232" stroke-width="2" stroke-linecap="round"/>
<path d="M137 1V5" stroke="#FF6232" stroke-width="2" stroke-linecap="round"/>
<path d="M145 1V5" stroke="#FF6232" stroke-width="2" stroke-linecap="round"/>
<path d="M153 1V9" stroke="#FF6232" stroke-width="2" stroke-linecap="round"/>
<path d="M161 1V5" stroke="#FF6232" stroke-width="2" stroke-linecap="round"/>
<path d="M169 1V5" stroke="#FF6232" stroke-width="2" stroke-linecap="round"/>
<path d="M177 1V5" stroke="#FF6232" stroke-width="2" stroke-linecap="round"/>
<path d="M185 1V9" stroke="#FF6232" stroke-width="2" stroke-linecap="round"/>
<path d="M193 1V5" stroke="#FF6232" stroke-width="2" stroke-linecap="round"/>
<path d="M201 1V5" stroke="#FF6232" stroke-width="2" stroke-linecap="round"/>
<path d="M209 1V5" stroke="#FF6232" stroke-width="2" stroke-linecap="round"/>
<path d="M217 1V9" stroke="#FF6232" stroke-width="2" stroke-linecap="round"/>
<path d="M225 1V5" stroke="#FF6232" stroke-width="2" stroke-linecap="round"/>
<path d="M233 1V5" stroke="#FF6232" stroke-width="2" stroke-linecap="round"/>
<path d="M241 1V5" stroke="#FF6232" stroke-width="2" stroke-linecap="round"/>
<path d="M249 1V9" stroke="#FF6232" stroke-width="2" stroke-linecap="round"/>
</svg>
