<svg width="70" height="70" viewBox="0 0 70 70" fill="none" xmlns="http://www.w3.org/2000/svg">
<rect width="70" height="70" rx="12" fill="#FFF5D5"/>
<g clip-path="url(#clip0_753_15874)">
<path d="M48.6781 24.117C49.1766 27.4431 49.7555 29.3468 47.3764 29.3468C44.1393 29.3468 44.1381 21.6856 38.6597 17.3211C33.2398 13.0042 29.1971 14.0536 29.1118 14.0767C29.1105 14.0779 29.1081 14.0804 29.1069 14.0816C33.6213 17.8501 31.1032 24.0439 28.1489 25.7514C25.314 27.3895 22.0782 25.3236 23.7723 20.4619C20.0464 25.5564 16.8301 31.7296 16.8301 37.8808C16.8301 47.9174 24.9667 56.054 35.0033 56.054C45.04 56.054 53.1766 47.9174 53.1766 37.8808C53.1766 33.1385 51.2607 28.3828 48.6781 24.117Z" fill="#FFC9B2"/>
<path d="M35.0081 35.0229C35.0081 35.0229 42.9106 39.5739 42.9106 45.9323C42.9106 50.2967 39.3725 53.8349 35.0081 53.8349C30.6436 53.8349 27.1055 50.2967 27.1055 45.9323C27.1055 39.5739 35.0081 35.0229 35.0081 35.0229Z" fill="#FFF5D5"/>
</g>
<defs>
<clipPath id="clip0_753_15874">
<rect width="48.7513" height="48.7513" fill="white" transform="translate(10.6309 10.625)"/>
</clipPath>
</defs>
</svg>
