<svg width="18" height="18" viewBox="0 0 18 18" fill="none" xmlns="http://www.w3.org/2000/svg">
<path d="M12.787 5.98582C12.925 6.90686 13.0853 7.43404 12.4265 7.43404C11.5301 7.43404 11.5298 5.31251 10.0127 4.10392C8.51187 2.9085 7.39239 3.19909 7.36876 3.2055C7.36842 3.20584 7.36775 3.20651 7.36741 3.20685C8.61751 4.2504 7.92024 5.96557 7.10214 6.43841C6.31711 6.89201 5.42105 6.31995 5.89017 4.97366C4.85844 6.38441 3.96777 8.09385 3.96777 9.79721C3.96777 12.5765 6.22092 14.8297 9.00024 14.8297C11.7795 14.8297 14.0327 12.5765 14.0327 9.79721C14.0327 8.484 13.5021 7.16707 12.787 5.98582Z" fill="#FF6232"/>
<path d="M8.99987 9.00586C8.99987 9.00586 11.1882 10.2661 11.1882 12.0268C11.1882 13.2354 10.2085 14.2152 8.99987 14.2152C7.79129 14.2152 6.81152 13.2354 6.81152 12.0268C6.81152 10.2661 8.99987 9.00586 8.99987 9.00586Z" fill="white"/>
</svg>
