<svg width="18" height="18" viewBox="0 0 18 18" fill="none" xmlns="http://www.w3.org/2000/svg">
<path d="M15.7551 3.50281C15.372 3.11957 14.9172 2.81555 14.4166 2.60813C13.916 2.40071 13.3795 2.29395 12.8376 2.29395C12.2957 2.29395 11.7592 2.40071 11.2586 2.60813C10.758 2.81555 10.3032 3.11957 9.92009 3.50281L9.12509 4.29781L8.33009 3.50281C7.55632 2.72905 6.50686 2.29435 5.41259 2.29435C4.31831 2.29435 3.26886 2.72905 2.49509 3.50281C1.72132 4.27658 1.28662 5.32604 1.28662 6.42031C1.28662 7.51459 1.72132 8.56405 2.49509 9.33781L3.29009 10.1328L9.12509 15.9678L14.9601 10.1328L15.7551 9.33781C16.1383 8.95475 16.4424 8.49993 16.6498 7.99933C16.8572 7.49874 16.964 6.96218 16.964 6.42031C16.964 5.87845 16.8572 5.34189 16.6498 4.8413C16.4424 4.3407 16.1383 3.88588 15.7551 3.50281Z" fill="#FF6C3F" stroke="#FF6C3F" stroke-width="1.63636" stroke-linecap="round" stroke-linejoin="round"/>
</svg>
