<svg width="25" height="25" viewBox="0 0 25 25" fill="none" xmlns="http://www.w3.org/2000/svg">
<rect x="0.96875" y="0.307617" width="24" height="24" rx="12" fill="#FF6232"/>
<g clip-path="url(#clip0_324_3316)">
<path d="M18.0177 8.28872C18.2018 9.51677 18.4155 10.2197 17.5371 10.2197C16.3419 10.2197 16.3415 7.39097 14.3187 5.77952C12.3176 4.18562 10.8249 4.57307 10.7934 4.58162C10.793 4.58207 10.7921 4.58297 10.7916 4.58342C12.4584 5.97482 11.5287 8.26172 10.4379 8.89217C9.39124 9.49697 8.19649 8.73422 8.82199 6.93917C7.44634 8.82017 6.25879 11.0994 6.25879 13.3706C6.25879 17.0763 9.26299 20.0805 12.9687 20.0805C16.6745 20.0805 19.6787 17.0763 19.6787 13.3706C19.6787 11.6196 18.9713 9.86372 18.0177 8.28872Z" fill="#FFC9B2"/>
<path d="M12.9686 12.3154C12.9686 12.3154 15.8864 13.9957 15.8864 16.3434C15.8864 17.9548 14.58 19.2612 12.9686 19.2612C11.3571 19.2612 10.0508 17.9548 10.0508 16.3434C10.0508 13.9957 12.9686 12.3154 12.9686 12.3154Z" fill="white"/>
</g>
<defs>
<clipPath id="clip0_324_3316">
<rect width="18" height="18" fill="white" transform="translate(3.96875 3.30762)"/>
</clipPath>
</defs>
</svg>
