<svg width="353" height="200" viewBox="0 0 353 200" fill="none" xmlns="http://www.w3.org/2000/svg">
<rect width="353" height="200" fill="#FFF5D5"/>
<g clip-path="url(#clip0_863_14901)">
<path d="M199.583 82.4806C200.424 88.0933 201.401 91.3059 197.387 91.3059C191.924 91.3059 191.922 78.3775 182.677 71.0125C173.531 63.7277 166.709 65.4985 166.565 65.5376C166.563 65.5397 166.559 65.5438 166.557 65.5458C174.175 71.9051 169.926 82.3572 164.94 85.2387C160.156 88.0028 154.696 84.5168 157.555 76.3126C151.267 84.9096 145.84 95.3267 145.84 105.707C145.84 122.644 159.57 136.374 176.507 136.374C193.444 136.374 207.175 122.644 207.175 105.707C207.175 97.7043 203.941 89.679 199.583 82.4806Z" fill="#FFC9B2"/>
<path d="M176.513 100.884C176.513 100.884 189.849 108.563 189.849 119.293C189.849 126.658 183.878 132.629 176.513 132.629C169.148 132.629 163.178 126.658 163.178 119.293C163.178 108.563 176.513 100.884 176.513 100.884Z" fill="#FFF5D5"/>
</g>
<defs>
<clipPath id="clip0_863_14901">
<rect width="82.2677" height="82.2677" fill="white" transform="translate(135.377 59.7124)"/>
</clipPath>
</defs>
</svg>
