<svg width="12" height="12" viewBox="0 0 12 12" fill="none" xmlns="http://www.w3.org/2000/svg">
<path d="M5.99512 0C6.5474 0 6.99512 0.447715 6.99512 1V4.99512H11C11.5523 4.99512 12 5.44283 12 5.99512C12 6.5474 11.5523 6.99512 11 6.99512H6.99512V11C6.99512 11.5523 6.5474 12 5.99512 12C5.44283 12 4.99512 11.5523 4.99512 11V6.99512H1C0.447716 6.99512 2.35718e-07 6.5474 0 5.99512C2.41411e-08 5.44283 0.447715 4.99512 1 4.99512H4.99512V1C4.99512 0.447715 5.44283 0 5.99512 0Z" fill="#FF6232"/>
</svg>
