<svg width="100" height="100" viewBox="0 0 100 100" fill="none" xmlns="http://www.w3.org/2000/svg">
<path d="M35.7812 54.1406V55.7812H22.7656V54.1406H28.25V51.2344H24.1406V44.2656H34.3281V51.2344H30.2344V54.1406H35.7812ZM26.1094 45.8594V49.6719H32.3594V45.8594H26.1094ZM45 44V45.5938H42.1562C42.25 47.0938 43.3203 48.5938 45.5469 49.2031L44.5469 50.75C42.9219 50.2891 41.7812 49.3125 41.1406 48.0625C40.4922 49.4141 39.3281 50.4844 37.6406 51L36.6406 49.4375C38.9062 48.7812 40.0078 47.2031 40.1094 45.5938H37.1875V44H45ZM48.5 43.2188V50.9375H46.5V43.2188H48.5ZM40.9531 51.5312V52.8594H46.5156V51.5312H48.5V57.2812H38.9844V51.5312H40.9531ZM40.9531 55.6875H46.5156V54.4062H40.9531V55.6875ZM57.875 48.3125V50.0156H63.3906V51.625H50.4219V50.0156H55.9062V48.3125H57.875ZM56.8906 52.4062C59.9844 52.4062 61.8281 53.2969 61.8438 54.9219C61.8281 56.5469 59.9844 57.4375 56.8906 57.4375C53.7656 57.4375 51.9062 56.5469 51.9062 54.9219C51.9062 53.2969 53.7656 52.4062 56.8906 52.4062ZM56.8906 53.9219C54.9062 53.9219 53.9219 54.25 53.9375 54.9219C53.9219 55.625 54.9062 55.9531 56.8906 55.9531C58.8281 55.9531 59.8281 55.625 59.8438 54.9219C59.8281 54.25 58.8281 53.9219 56.8906 53.9219ZM62.2188 43.8281V45.3906H58.3594C58.7109 46.3672 60.1641 47.3203 62.8281 47.5625L62.125 49.125C59.4453 48.8594 57.6484 47.8672 56.8906 46.4844C56.1328 47.8594 54.3594 48.8594 51.6875 49.125L50.9844 47.5625C53.6328 47.3203 55.0938 46.3828 55.4531 45.3906H51.6094V43.8281H62.2188ZM77.2656 54.2188V55.8594H64.25V54.2188H67.5781V52.0469H65.75V47.2656H73.7969V45.7344H65.7344V44.1406H75.7656V48.8594H67.75V50.4375H76.0938V52.0469H74.0781V54.2188H77.2656ZM69.5156 54.2188H72.125V52.0469H69.5156V54.2188Z" fill="white"/>
<circle cx="50" cy="50" r="49.5" stroke="white"/>
</svg>
