<svg width="24" height="24" viewBox="0 0 24 24" fill="none" xmlns="http://www.w3.org/2000/svg">
<rect width="24" height="24" rx="12" fill="#FF6232"/>
<g clip-path="url(#clip0_553_11172)">
<path d="M17.05 7.98159C17.234 9.20964 17.4478 9.91254 16.5694 9.91254C15.3742 9.91254 15.3737 7.08384 13.351 5.47239C11.3498 3.87849 9.85717 4.26594 9.82567 4.27449C9.82522 4.27494 9.82432 4.27584 9.82387 4.27629C11.4907 5.66769 10.561 7.95459 9.47017 8.58504C8.42347 9.18984 7.22872 8.42709 7.85422 6.63204C6.47857 8.51304 5.29102 10.7923 5.29102 13.0634C5.29102 16.7692 8.29522 19.7734 12.001 19.7734C15.7067 19.7734 18.7109 16.7692 18.7109 13.0634C18.7109 11.3125 18.0035 9.55659 17.05 7.98159Z" fill="#FFC9B2"/>
<path d="M12.0018 12.0083C12.0018 12.0083 14.9196 13.6886 14.9196 16.0363C14.9196 17.6477 13.6132 18.9541 12.0018 18.9541C10.3903 18.9541 9.08398 17.6477 9.08398 16.0363C9.08398 13.6886 12.0018 12.0083 12.0018 12.0083Z" fill="white"/>
</g>
<defs>
<clipPath id="clip0_553_11172">
<rect width="18" height="18" fill="white" transform="translate(3 3)"/>
</clipPath>
</defs>
</svg>
